<?xml version="1.0" encoding="UTF-8"?>
<svg width="102px" height="44px" viewBox="0 0 102 44" version="1.1" xmlns="http://www.w3.org/2000/svg" xmlns:xlink="http://www.w3.org/1999/xlink">
    <!-- Generator: Sketch 42 (36781) - http://www.bohemiancoding.com/sketch -->
    <title>Combined Shape</title>
    <desc>Created with Sketch.</desc>
    <defs></defs>
    <g id="Symbols" stroke="none" stroke-width="1" fill="none" fill-rule="evenodd">
        <g id="sub" fill="#53565A">
            <g id="Group-11">
                <path d="M24.0320791,40.7190833 L24.313428,40.7190833 C25.1524906,40.7190833 25.5718973,40.3986097 25.5718973,39.7574133 C25.5718973,39.1565877 25.1637047,38.8560503 24.3475686,38.8560503 L24.0320791,38.8560503 L24.0320791,40.7190833 Z M25.134548,41.3919282 L26.9517279,43.8936656 L25.8684475,43.8936656 L24.1918175,41.4911106 L24.0320791,41.4911106 L24.0320791,43.8936656 L23.1461665,43.8936656 L23.1461665,38.0239653 L24.1840922,38.0239653 C24.9596083,38.0239653 25.5198141,38.1694992 25.8644602,38.4608161 C26.2447423,38.7852769 26.4348833,39.2136549 26.4348833,39.74595 C26.4348833,40.1616187 26.3157648,40.518725 26.0775278,40.8177672 C25.8392909,41.1173078 25.5247981,41.3084456 25.134548,41.3919282 Z M31.3844057,38.8561499 L29.0309435,38.8561499 L29.0309435,40.2666324 L31.3158752,40.2666324 L31.3158752,41.0992158 L29.0309435,41.0992158 L29.0309435,43.0609327 L31.3844057,43.0609327 L31.3844057,43.8937653 L28.1452801,43.8937653 L28.1452801,38.0235666 L31.3844057,38.0235666 L31.3844057,38.8561499 Z M36.774542,42.467932 L34.2615906,42.467932 L33.6076849,43.8938649 L32.6534911,43.8938649 L35.5579386,37.6548475 L38.3599641,43.8938649 L37.390569,43.8938649 L36.774542,42.467932 Z M36.4134485,41.6353486 L35.5427373,39.639491 L34.6304093,41.6353486 L36.4134485,41.6353486 Z M40.6024319,38.0236164 L40.6024319,43.0612317 L42.3284039,43.0612317 L42.3284039,43.8938151 L39.7165193,43.8938151 L39.7165193,38.0236164 L40.6024319,38.0236164 Z M50.3675308,38.8561499 L48.0143178,38.8561499 L48.0143178,40.2666324 L50.2992495,40.2666324 L50.2992495,41.0992158 L48.0143178,41.0992158 L48.0143178,43.0609327 L50.3675308,43.0609327 L50.3675308,43.8937653 L47.1284052,43.8937653 L47.1284052,38.0235666 L50.3675308,38.0235666 L50.3675308,38.8561499 Z M55.3172776,38.8943526 L54.5988286,39.3202385 C54.4645088,39.0867364 54.3364191,38.9347233 54.2148086,38.86395 C54.0879649,38.7829594 53.9244884,38.7423395 53.7243794,38.7423395 C53.4784171,38.7423395 53.2743208,38.812116 53.1123396,38.9514198 C52.9501092,39.0882316 52.8688694,39.2609285 52.8688694,39.469012 C52.8688694,39.755345 53.0816878,39.9863551 53.5075738,40.1612948 L54.0931981,40.4010269 C54.569672,40.59366 54.9180562,40.8291557 55.1385998,41.1067666 C55.3591435,41.3843774 55.4692907,41.7247871 55.4692907,42.1282449 C55.4692907,42.6685145 55.289367,43.1150842 54.9295195,43.4677049 C54.5669308,43.8223191 54.1171215,44 53.5798423,44 C53.0704737,44 52.6495718,43.8487345 52.3176349,43.5454558 C51.9906821,43.2426756 51.7865858,42.8175372 51.7055952,42.27029 L52.6027219,42.0726729 C52.643591,42.4173191 52.7143643,42.655556 52.8157894,42.7871346 C52.9982052,43.0408221 53.2643528,43.1674166 53.6139829,43.1674166 C53.8903478,43.1674166 54.1196135,43.0749627 54.3022784,42.890055 C54.4846942,42.7053964 54.5759021,42.4711467 54.5759021,42.1873058 C54.5759021,42.0734205 54.5599532,41.969005 54.5283045,41.8740591 C54.4966559,41.7786147 54.4473139,41.6916433 54.3802786,41.6116495 C54.3129941,41.5321541 54.2260227,41.4571444 54.1196135,41.3878662 C54.0132043,41.3180897 53.8866098,41.2515528 53.7395807,41.1880064 L53.1731449,40.9527598 C52.3697181,40.6130977 51.968254,40.1166876 51.968254,39.4632804 C51.968254,39.0229407 52.1364652,38.654122 52.4736353,38.3580702 C52.8105562,38.0587788 53.2299629,37.9097561 53.7318554,37.9097561 C54.4086876,37.9097561 54.9369955,38.2377057 55.3172776,38.8943526 Z M59.0460349,38.8561499 L59.0460349,43.8937653 L58.1601224,43.8937653 L58.1601224,38.8561499 L56.8106944,38.8561499 L56.8106944,38.0235666 L60.3919741,38.0235666 L60.3919741,38.8561499 L59.0460349,38.8561499 Z M64.7785995,42.467932 L62.265648,42.467932 L61.6117424,43.8938649 L60.6575485,43.8938649 L63.561996,37.6548475 L66.3642708,43.8938649 L65.3948756,43.8938649 L64.7785995,42.467932 Z M64.417506,41.6353486 L63.5470439,39.639491 L62.634716,41.6353486 L64.417506,41.6353486 Z M68.8576349,38.8561499 L68.8576349,43.8937653 L67.9717224,43.8937653 L67.9717224,38.8561499 L66.6222944,38.8561499 L66.6222944,38.0235666 L70.2035741,38.0235666 L70.2035741,38.8561499 L68.8576349,38.8561499 Z M74.7004962,38.8561499 L72.347034,38.8561499 L72.347034,40.2666324 L74.6319657,40.2666324 L74.6319657,41.0992158 L72.347034,41.0992158 L72.347034,43.0609327 L74.7004962,43.0609327 L74.7004962,43.8937653 L71.4613706,43.8937653 L71.4613706,38.0235666 L74.7004962,38.0235666 L74.7004962,38.8561499 Z M28.8645265,1.76195673 L28.8645265,25.8293726 L37.1108648,25.8293726 L37.1108648,29.8073817 L24.6323316,29.8073817 L24.6323316,1.76195673 L28.8645265,1.76195673 Z M62.8082103,22.995848 L50.8016653,22.995848 L47.6774218,29.807282 L43.118274,29.807282 L56.9958264,0 L70.3824512,29.807282 L65.7505365,29.807282 L62.8082103,22.995848 Z M61.0824875,19.0178389 L56.9230595,9.48163184 L52.5635224,19.0178389 L61.0824875,19.0178389 Z M81.0965108,12.7330431 L93.1937652,12.7330431 L93.1937652,1.76193181 L97.4264586,1.76193181 L97.4264586,29.8073568 L93.1937652,29.8073568 L93.1937652,16.7110522 L81.0965108,16.7110522 L81.0965108,29.8073568 L76.864565,29.8073568 L76.864565,1.76193181 L81.0965108,1.76193181 L81.0965108,12.7330431 Z M101.594634,28.535605 C101.594634,28.8917144 101.470033,29.1947439 101.221828,29.4446933 C100.972875,29.6946428 100.672088,29.8194929 100.318471,29.8194929 C99.9658503,29.8194929 99.6643161,29.6938952 99.4128714,29.4431981 C99.1639187,29.1932487 99.0400654,28.8897208 99.0400654,28.5323654 C99.0400654,28.3347483 99.0799377,28.1545754 99.1611775,27.9918466 C99.2426665,27.8184021 99.356801,27.6718714 99.5018364,27.5515069 C99.7405718,27.3548866 100.008215,27.2567011 100.304017,27.2567011 C100.501136,27.2567011 100.679315,27.2938322 100.838804,27.3683435 C101.065578,27.4670275 101.247246,27.6240246 101.385553,27.8385874 C101.525106,28.0546454 101.594634,28.2869016 101.594634,28.535605 Z M100.309001,27.4433533 C100.017684,27.4433533 99.767984,27.5505101 99.5596513,27.7653221 C99.3505709,27.9811309 99.2449093,28.2375596 99.2449093,28.5341098 C99.2449093,28.8371392 99.3505709,29.0965584 99.5596513,29.3126164 C99.767984,29.5269299 100.020675,29.6343359 100.318471,29.6343359 C100.612778,29.6343359 100.864971,29.5276775 101.075048,29.3138624 C101.28338,29.0990504 101.387048,28.8396312 101.387048,28.535605 C101.387048,28.3728762 101.346429,28.2049141 101.264192,28.0317189 C101.183451,27.8692393 101.076792,27.7399035 100.942722,27.64421 C100.754325,27.5101394 100.542503,27.4433533 100.309001,27.4433533 Z M18.189492,29.8073319 L13.0105792,29.8073319 L4.99724462,18.323114 L4.23393937,17.2532905 L4.23393937,29.8073319 L0,29.8073319 L0,1.75069281 L4.96086115,1.75069281 C8.66773861,1.75069281 11.344914,2.44746117 12.9926367,3.84049949 C14.8098165,5.39128258 15.7184064,7.43822654 15.7184064,9.98232819 C15.7184064,11.9692145 15.148731,13.6774932 14.0101278,15.1066658 C12.8712754,16.5360875 11.3690866,17.4509075 9.5035616,17.8506273 L18.189492,29.8073319 Z M100.443072,28.6599567 L100.923284,29.2772297 L100.578638,29.2772297 L100.140541,28.6918546 L100.140541,29.2772297 L99.8579459,29.2772297 L99.8579459,27.8004596 L100.153499,27.8004596 C100.35934,27.8004596 100.509858,27.8370922 100.604056,27.9106068 C100.709469,27.9955846 100.76205,28.1064794 100.76205,28.2437896 C100.76205,28.3364927 100.734389,28.421969 100.677322,28.5004675 C100.621002,28.5772217 100.549232,28.6280589 100.46226,28.6537267 L100.443072,28.6599567 Z M100.139046,28.4558604 L100.186643,28.4558604 C100.388746,28.4558604 100.489174,28.3863331 100.489174,28.2470293 C100.489174,28.1171951 100.391985,28.0524026 100.195614,28.0524026 L100.139046,28.0524026 L100.139046,28.4558604 Z M4.23393937,14.6341791 L5.57863253,14.6341791 C9.58829023,14.6341791 11.5933683,13.1018369 11.5933683,10.0369034 C11.5933683,7.16584893 9.64286544,5.73019709 5.74210894,5.73019709 L4.23393937,5.73019709 L4.23393937,14.6341791 Z" id="Combined-Shape"></path>
            </g>
        </g>
    </g>
</svg>